
<svg version="1.0" xmlns="http://www.w3.org/2000/svg" width="1024.000000pt" height="1024.000000pt" viewBox="160 450 670 10">
<mask id="bubbleMask">
    <rect width="1000" height="1000" fill="white"/>
    <circle cx="400" cy="450" r="200" fill="black"/>
  </mask>

  <!-- Cercle orange à droite, masqué par la bulle -->
  <circle cx="600" cy="450" r="200" fill="#f28c00" mask="url(#bubbleMask)"/>
  <g transform="translate(0.000000,1024.000000) scale(0.100000,-0.100000)" fill="#000000" stroke="none">
    <path d="M3830 7719 c-453 -44 -926 -271 -1249 -599 -392 -396 -602 -944 -577 -1505 23 -536 217 -979 598 -1362 l101 -103 -88 -367 c-48 -203 -88 -384 -88 -405 0 -109 137 -182 241 -129 32 16 380 237 693 439 83 54 100 61 121 53 14 -5 83 -20 154 -32 102 -18 169 -23 319 -23 194 -1 295 9 455 45 387 88 771 317 1042 622 348 393 528 867 528 1390 -1 318 -59 577 -193 852 -278 569 -809 971 -1447 1095 -190 36 -423 48 -610 29z m325 -288 c171 -13 302 -37 440 -82 609 -199 1064 -711 1175 -1324 46 -256 23 -590 -61 -848 -40 -127 -155 -353 -236 -467 -122 -170 -318 -358 -498 -477 -352 -234 -841 -315 -1305 -216 -69 15 -137 27 -151 26 -21 0 -399 -227 -606 -364 -24 -16 -43 -27 -43 -25 0 1 29 123 65 271 36 148 65 280 65 293 0 37 -14 55 -148 189 -207 207 -324 372 -424 598 -160 361 -183 843 -58 1224 81 250 229 494 411 682 297 305 677 484 1101 519 132 10 140 10 273 1z"/>
    <path d="M3858 7044 c-292 -53 -528 -235 -638 -492 -31 -73 -60 -190 -60 -242 0 -33 -11 -31 285 -55 255 -21 241 -22 249 23 9 58 60 155 102 197 63 61 134 89 229 90 68 0 89 -4 137 -28 151 -74 197 -223 119 -382 -27 -55 -64 -99 -181 -219 -284 -292 -354 -425 -348 -663 l3 -108 237 -3 237 -2 6 57 c9 92 33 184 63 243 27 55 75 107 257 280 250 238 346 422 332 644 -16 271 -194 496 -482 609 -160 63 -372 83 -547 51z"/>
    <path d="M3862 4920 c-248 -124 -231 -477 28 -581 56 -23 185 -17 247 10 63 28 136 103 165 169 49 110 17 255 -77 346 -93 91 -246 114 -363 56z"/>
</g>
</svg>